<svg width="200" height="150" viewBox="0 0 200 150" fill="none" xmlns="http://www.w3.org/2000/svg">
  <!-- Background -->
  <rect x="20" y="20" width="160" height="110" rx="5" fill="#F5F5F5" stroke="#333333" stroke-width="1"/>
  
  <!-- Bar Chart -->
  <rect x="40" y="100" width="15" height="20" fill="#4285F4" stroke="#333333" stroke-width="1"/>
  <rect x="65" y="80" width="15" height="40" fill="#4285F4" stroke="#333333" stroke-width="1"/>
  <rect x="90" y="60" width="15" height="60" fill="#4285F4" stroke="#333333" stroke-width="1"/>
  <rect x="115" y="40" width="15" height="80" fill="#4285F4" stroke="#333333" stroke-width="1"/>
  <rect x="140" y="70" width="15" height="50" fill="#4285F4" stroke="#333333" stroke-width="1"/>
  
  <!-- X and Y Axis -->
  <line x1="30" y1="120" x2="170" y2="120" stroke="#333333" stroke-width="2"/>
  <line x1="30" y1="30" x2="30" y2="120" stroke="#333333" stroke-width="2"/>
  
  <!-- Line Graph -->
  <path d="M40 90 L65 70 L90 50 L115 30 L140 60 L165 40" stroke="#FF6347" stroke-width="2" fill="none"/>
  <circle cx="40" cy="90" r="3" fill="#FF6347"/>
  <circle cx="65" cy="70" r="3" fill="#FF6347"/>
  <circle cx="90" cy="50" r="3" fill="#FF6347"/>
  <circle cx="115" cy="30" r="3" fill="#FF6347"/>
  <circle cx="140" cy="60" r="3" fill="#FF6347"/>
  <circle cx="165" cy="40" r="3" fill="#FF6347"/>
  
  <!-- Pie Chart -->
  <path d="M160 90 L160 70 A20 20 0 0 1 178 82 Z" fill="#4CAF50"/>
  <path d="M160 90 L178 82 A20 20 0 0 1 170 100 Z" fill="#FFC107"/>
  <path d="M160 90 L170 100 A20 20 0 0 1 150 105 Z" fill="#F44336"/>
  <path d="M160 90 L150 105 A20 20 0 0 1 140 90 Z" fill="#9C27B0"/>
  <path d="M160 90 L140 90 A20 20 0 0 1 160 70 Z" fill="#2196F3"/>
  
  <!-- Data Points/Icons -->
  <circle cx="50" cy="40" r="5" fill="#E0E0E0" stroke="#333333" stroke-width="1"/>
  <circle cx="60" cy="50" r="5" fill="#E0E0E0" stroke="#333333" stroke-width="1"/>
  <circle cx="70" cy="35" r="5" fill="#E0E0E0" stroke="#333333" stroke-width="1"/>
  
  <!-- Magnifying Glass -->
  <circle cx="120" cy="90" r="10" fill="none" stroke="#333333" stroke-width="1"/>
  <line x1="127" y1="97" x2="135" y2="105" stroke="#333333" stroke-width="2"/>
</svg>
