<svg width="142" height="142" viewBox="0 0 142 142" fill="none" xmlns="http://www.w3.org/2000/svg">
<path d="M0 72H133" stroke="#0066FF" stroke-opacity="0.6" stroke-width="8"/>
<path d="M70 9V142" stroke="#0066FF" stroke-opacity="0.6" stroke-width="8"/>
<path d="M70 0L61 9H79L70 0Z" fill="#0066FF" fill-opacity="0.6"/>
<path opacity="0.8" d="M95 42C99.9706 42 104 37.9706 104 33C104 28.0294 99.9706 24 95 24C90.0294 24 86 28.0294 86 33C86 37.9706 90.0294 42 95 42Z" fill="#0066FF"/>
<path opacity="0.6" d="M120 58C123.314 58 126 55.3137 126 52C126 48.6863 123.314 46 120 46C116.686 46 114 48.6863 114 52C114 55.3137 116.686 58 120 58Z" fill="#0066FF"/>
<path opacity="0.7" d="M39 101C43.4183 101 47 97.4183 47 93C47 88.5817 43.4183 85 39 85C34.5817 85 31 88.5817 31 93C31 97.4183 34.5817 101 39 101Z" fill="#0066FF"/>
<path opacity="0.5" d="M89.5 107C92.5376 107 95 104.538 95 101.5C95 98.4624 92.5376 96 89.5 96C86.4624 96 84 98.4624 84 101.5C84 104.538 86.4624 107 89.5 107Z" fill="#0066FF"/>
<path opacity="0.3" d="M95 33L120 52" stroke="#0066FF"/>
<path opacity="0.3" d="M39 93L90 102" stroke="#0066FF"/>
<path d="M70 78C73.3137 78 76 75.3137 76 72C76 68.6863 73.3137 66 70 66C66.6863 66 64 68.6863 64 72C64 75.3137 66.6863 78 70 78Z" fill="#0066FF"/>
<path d="M142 72L133 63V81L142 72Z" fill="#0066FF" fill-opacity="0.6"/>
</svg>
