<svg width="145" height="145" viewBox="0 0 145 145" fill="none" xmlns="http://www.w3.org/2000/svg">
<path d="M0 75H133" stroke="#0066FF" stroke-opacity="0.6" stroke-width="12"/>
<path d="M70 12V145" stroke="#0066FF" stroke-opacity="0.6" stroke-width="12"/>
<path d="M70 0L58 12H82L70 0Z" fill="#0066FF" fill-opacity="0.6"/>
<path opacity="0.8" d="M92 42C96.9706 42 101 37.9706 101 33C101 28.0294 96.9706 24 92 24C87.0294 24 83 28.0294 83 33C83 37.9706 87.0294 42 92 42Z" fill="#0066FF"/>
<path opacity="0.6" d="M125 61C128.314 61 131 58.3137 131 55C131 51.6863 128.314 49 125 49C121.686 49 119 51.6863 119 55C119 58.3137 121.686 61 125 61Z" fill="#0066FF"/>
<path opacity="0.7" d="M37 111C41.9706 111 46 106.971 46 102C46 97.0294 41.9706 93 37 93C32.0294 93 28 97.0294 28 102C28 106.971 32.0294 111 37 111Z" fill="#0066FF"/>
<path opacity="0.5" d="M93.5 117C96.5376 117 99 114.538 99 111.5C99 108.462 96.5376 106 93.5 106C90.4624 106 88 108.462 88 111.5C88 114.538 90.4624 117 93.5 117Z" fill="#0066FF"/>
<path opacity="0.3" d="M92 33L125 55" stroke="#0066FF" stroke-width="2"/>
<path opacity="0.3" d="M37 102L94 112" stroke="#0066FF" stroke-width="2"/>
<path d="M70 84C74.9706 84 79 79.9706 79 75C79 70.0294 74.9706 66 70 66C65.0294 66 61 70.0294 61 75C61 79.9706 65.0294 84 70 84Z" fill="#0066FF"/>
<path d="M145 75L133 63V87L145 75Z" fill="#0066FF" fill-opacity="0.6"/>
</svg>
