<svg width="96" height="96" viewBox="0 0 96 96" fill="none" xmlns="http://www.w3.org/2000/svg">
<rect width="96" height="96" rx="32" fill="url(#paint0_linear_15_6)"/>
<path d="M29.3332 52.6667C28.8917 52.6682 28.4588 52.5444 28.0848 52.3096C27.7108 52.0749 27.4111 51.7388 27.2205 51.3405C27.0299 50.9422 26.9563 50.498 27.0081 50.0595C27.0599 49.621 27.2351 49.2062 27.5132 48.8633L50.6132 25.0633C50.7865 24.8633 51.0226 24.7282 51.2829 24.68C51.5431 24.6319 51.8119 24.6737 52.0453 24.7985C52.2786 24.9233 52.4626 25.1238 52.567 25.3669C52.6714 25.6101 52.6901 25.8815 52.6199 26.1367L48.1399 40.1833C48.0078 40.5369 47.9634 40.9172 48.0106 41.2917C48.0578 41.6661 48.1951 42.0236 48.4108 42.3333C48.6264 42.6431 48.914 42.8959 49.2489 43.07C49.5837 43.2442 49.9558 43.3346 50.3332 43.3333H66.6666C67.1081 43.3318 67.541 43.4556 67.915 43.6904C68.289 43.9251 68.5887 44.2612 68.7793 44.6595C68.9699 45.0578 69.0435 45.502 68.9917 45.9405C68.9399 46.379 68.7647 46.7938 68.4866 47.1367L45.3866 70.9367C45.2133 71.1367 44.9772 71.2718 44.7169 71.3199C44.4567 71.3681 44.1879 71.3263 43.9545 71.2015C43.7212 71.0767 43.5372 70.8762 43.4328 70.6331C43.3284 70.3899 43.3097 70.1185 43.3799 69.8633L47.8599 55.8167C47.992 55.4631 48.0364 55.0828 47.9892 54.7083C47.942 54.3338 47.8047 53.9764 47.589 53.6667C47.3734 53.3569 47.0858 53.1041 46.7509 52.93C46.4161 52.7558 46.044 52.6654 45.6666 52.6667H29.3332Z" stroke="white" stroke-width="4" stroke-linecap="round" stroke-linejoin="round"/>
<defs>
<linearGradient id="paint0_linear_15_6" x1="14" y1="7" x2="82.5" y2="90.5" gradientUnits="userSpaceOnUse">
<stop stop-color="#FFD230"/>
<stop offset="1" stop-color="#E17100"/>
</linearGradient>
</defs>
</svg>
